<mxfile host="app.diagrams.net" modified="2024-04-28T07:38:22.430Z" agent="Mozilla/5.0 (Macintosh; Intel Mac OS X 10_15_7) AppleWebKit/537.36 (KHTML, like Gecko) Chrome/123.0.0.0 Safari/537.36" version="24.3.1" etag="vn9AHgteZ3i3GoXiFLwF" type="github">
  <diagram name="ページ1" id="szWeKx5pFOlwJt_7vksH">
    <mxGraphModel>
      <root>
        <mxCell id="0" />
        <mxCell id="1" parent="0" />
      </root>
    </mxGraphModel>
  </diagram>
</mxfile>
